<?xml version="1.0" encoding="utf-8"?>
<!-- Generator: Adobe Illustrator 23.0.3, SVG Export Plug-In . SVG Version: 6.00 Build 0)  -->
<svg version="1.1" id="Layer_1" xmlns="http://www.w3.org/2000/svg" xmlns:xlink="http://www.w3.org/1999/xlink" x="0px" y="0px"
	 viewBox="0 0 1200 1200" enable-background="new 0 0 1200 1200" xml:space="preserve">
<g>
	<path stroke="#231F20" stroke-width="0.5" stroke-miterlimit="10" d="M1009.686,629.74c-5.676-5.215-11.832-12.466-17.633-22.615
		c-17.745-31.375-32.641-88.48-21.334-196.554c-39.816,100.491-79.891,145.261-109.405,164.561
		c-14.853,9.473-27.178,13.568-35.907,14.606c-5.171,0.69-11.231-0.379-11.231-0.379s-5.228-0.64-12.908-4.992
		c-7.679-4.236-17.749-11.717-27.934-26.214c-10.201-14.467-20.464-35.858-28.948-66.479c-8.448-30.841-15.178-71.813-17.472-126.14
		c-13.051,52.371-27.956,91.466-42.342,120.16c-7.216,14.354-14.357,26.143-21.266,35.817c-6.909,9.613-13.591,17.227-19.886,23.542
		c-12.579,12.402-23.666,18.11-31.764,20.707c-5.227,1.606-9.08,2.095-11.232,2.255c-2.152-0.16-6.005-0.648-11.232-2.255
		c-8.098-2.597-19.186-8.305-31.764-20.707c-6.295-6.315-12.977-13.929-19.886-23.542c-6.909-9.674-14.05-21.463-21.266-35.817
		c-14.386-28.694-29.291-67.788-42.342-120.16c-2.294,54.327-9.024,95.299-17.472,126.14c-8.484,30.621-18.746,52.012-28.948,66.479
		c-10.185,14.497-20.255,21.978-27.934,26.214c-7.68,4.352-12.908,4.992-12.908,4.992s-6.059,1.069-11.231,0.379
		c-8.729-1.038-21.054-5.133-35.907-14.606c-29.514-19.301-69.588-64.07-109.405-164.561
		c11.307,108.075-3.589,165.179-21.334,196.554c-5.688,9.952-11.721,17.131-17.305,22.324c-7.177,1.929-32.545,0.796-113.16-114.518
		c-4.234-6.056-13.648-13.125-18.163-19.823c15.519,26.285,36.89,62.483,60.491,102.457c20.228,34.26,38.806,65.728,53.478,90.579
		l7.221-4.263l1.192,4.263l836.757-3.602l6.102,3.602c14.672-24.851,33.251-56.319,53.478-90.579
		c23.601-39.974,44.973-76.172,60.491-102.457c-4.652,6.902-12.725,14.732-17.079,20.952
		C1047.052,623.571,1019.246,630.69,1009.686,629.74z"/>
	<path stroke="#231F20" stroke-width="0.5" stroke-miterlimit="10" d="M1009.686,629.74c-5.676-5.215-11.832-12.466-17.633-22.615
		c-17.745-31.375-32.641-88.48-21.334-196.554c-39.816,100.491-79.891,145.261-109.405,164.561
		c-14.853,9.473-27.178,13.568-35.907,14.606c-5.171,0.69-11.231-0.379-11.231-0.379s-5.228-0.64-12.908-4.992
		c-7.679-4.236-17.749-11.717-27.934-26.214c-10.201-14.467-20.464-35.858-28.948-66.479c-8.448-30.841-15.178-71.813-17.472-126.14
		c-13.051,52.371-27.956,91.466-42.342,120.16c-7.216,14.354-14.357,26.143-21.266,35.817c-6.909,9.613-13.591,17.227-19.886,23.542
		c-12.579,12.402-23.666,18.11-31.764,20.707c-5.227,1.606-9.08,2.095-11.232,2.255c-2.152-0.16-6.005-0.648-11.232-2.255
		c-8.098-2.597-19.186-8.305-31.764-20.707c-6.295-6.315-12.977-13.929-19.886-23.542c-6.909-9.674-14.05-21.463-21.266-35.817
		c-14.386-28.694-29.291-67.788-42.342-120.16c-2.294,54.327-9.024,95.299-17.472,126.14c-8.484,30.621-18.746,52.012-28.948,66.479
		c-10.185,14.497-20.255,21.978-27.934,26.214c-7.68,4.352-12.908,4.992-12.908,4.992s-6.059,1.069-11.231,0.379
		c-8.729-1.038-21.054-5.133-35.907-14.606c-29.514-19.301-69.588-64.07-109.405-164.561
		c11.307,108.075-3.589,165.179-21.334,196.554c-5.688,9.952-11.721,17.131-17.305,22.324c-7.177,1.929-32.545,0.796-113.16-114.518
		c-4.234-6.056-13.648-13.125-18.163-19.823c15.519,26.285,36.89,62.483,60.491,102.457c20.228,34.26,38.806,65.728,53.478,90.579
		l7.221-4.263l1.192,4.263l836.757-3.602l6.102,3.602c14.672-24.851,33.251-56.319,53.478-90.579
		c23.601-39.974,44.973-76.172,60.491-102.457c-4.652,6.902-12.725,14.732-17.079,20.952
		C1047.052,623.571,1019.246,630.69,1009.686,629.74z"/>
	<path stroke="#231F20" stroke-width="0.5" stroke-miterlimit="10" d="M602.711,649.51c-0.313-0.001-0.625-0.001-0.938-0.002v-0.012
		c-0.924,0.003-1.848,0.005-2.772,0.006c-0.924-0.001-1.848-0.003-2.772-0.006v0.012c-0.313,0.001-0.625,0-0.938,0.002
		c-218.93-1.013-437.734,15.565-432.951,52.293c0.598,4.588,5.986,8.641,15.388,12.21c45.938-8.145,234.185-13.195,421.273-13.671
		c187.087,0.477,375.335,5.526,421.273,13.671c9.402-3.568,14.79-7.622,15.388-12.21
		C1040.445,665.075,821.641,648.497,602.711,649.51z"/>
	<path stroke="#231F20" stroke-width="0.5" stroke-miterlimit="10" d="M596.467,692.554c-161.854,5.328-392.126,1.401-413.897,39.79
		c30.908,52.612,12.078,76.239,0.36,84.902c42.714-20.872,211.815-36.46,413.94-36.46c195.538,0,360.158,14.589,409.354,34.437
		c-11.652-10.127-26.08-34.252,3.494-83.911C984.426,694.026,756.855,697.833,596.467,692.554z"/>
	<ellipse stroke="#231F20" stroke-width="0.5" stroke-miterlimit="10" cx="596.144" cy="828.369" rx="424.371" ry="46.811"/>
	<ellipse stroke="#231F20" stroke-width="0.5" stroke-miterlimit="10" cx="596.828" cy="832.891" rx="397.341" ry="22.84"/>
	
		<ellipse fill="#FFFFFF" stroke="#231F20" stroke-width="0.5" stroke-miterlimit="10" cx="596.144" cy="832.891" rx="397.341" ry="22.84"/>
	<path stroke="#231F20" stroke-width="0.5" stroke-miterlimit="10" d="M1026.029,723.106c-0.593,4.273-5.944,8.048-15.279,11.372
		c-17.039-39.851-250.854-35.762-414.606-41.152c-163.752,5.39-397.567,1.301-414.606,41.152
		c-9.335-3.323-14.686-7.098-15.279-11.372c-4.75-34.207,212.506-49.647,429.885-48.704
		C813.524,673.458,1030.779,688.898,1026.029,723.106z"/>
	
		<ellipse transform="matrix(0.9993 -0.037 0.037 0.9993 -26.9628 17.3678)" fill="#FFFFFF" stroke="#231F20" stroke-width="0.5" stroke-miterlimit="10" cx="455.889" cy="737.363" rx="32.944" ry="19.568"/>
	
		<ellipse transform="matrix(0.9958 -0.0911 0.0911 0.9958 -66.8603 31.8115)" fill="#FFFFFF" stroke="#231F20" stroke-width="0.5" stroke-miterlimit="10" cx="315.067" cy="748.366" rx="32.944" ry="19.568"/>
	
		<ellipse fill="#FFFFFF" stroke="#231F20" stroke-width="0.5" stroke-miterlimit="10" cx="596.806" cy="737.252" rx="32.944" ry="19.568"/>
	
		<ellipse transform="matrix(0.9993 -0.037 0.037 0.9993 -28.2875 8.1126)" stroke="#231F20" stroke-width="0.5" stroke-miterlimit="10" cx="205.103" cy="768.54" rx="18.448" ry="22.852"/>
	
		<ellipse transform="matrix(0.9993 -0.037 0.037 0.9993 -28.2882 7.9931)" fill="#FFFFFF" stroke="#231F20" stroke-width="0.5" stroke-miterlimit="10" cx="201.874" cy="768.501" rx="16.83" ry="19.568"/>
	
		<ellipse transform="matrix(0.037 -0.9993 0.9993 0.037 -26.4239 1447.306)" fill="#FFFFFF" stroke="#231F20" stroke-width="0.5" stroke-miterlimit="10" cx="737.723" cy="737.363" rx="19.568" ry="32.944"/>
	
		<ellipse transform="matrix(0.0911 -0.9958 0.9958 0.0911 53.2613 1555.087)" fill="#FFFFFF" stroke="#231F20" stroke-width="0.5" stroke-miterlimit="10" cx="878.544" cy="748.366" rx="19.568" ry="32.944"/>
	
		<ellipse transform="matrix(0.037 -0.9993 0.9993 0.037 187.0781 1731.1335)" fill="#FFFFFF" stroke="#231F20" stroke-width="0.5" stroke-miterlimit="10" cx="991.737" cy="768.501" rx="19.568" ry="16.83"/>
	<g>
		<circle stroke="#231F20" stroke-width="0.5" stroke-miterlimit="10" cx="472.126" cy="347.295" r="21.975"/>
		<polygon stroke="#231F20" stroke-width="0.5" stroke-miterlimit="10" points="481.353,388.28 470.801,389.201 464.657,367.979 
			483.395,366.343 		"/>
	</g>
	<g>
		<circle stroke="#231F20" stroke-width="0.5" stroke-miterlimit="10" cx="728.815" cy="347.295" r="21.975"/>
		<polygon stroke="#231F20" stroke-width="0.5" stroke-miterlimit="10" points="719.589,388.28 730.14,389.201 736.285,367.979 
			717.546,366.343 		"/>
	</g>
	<g>
		<circle stroke="#231F20" stroke-width="0.5" stroke-miterlimit="10" cx="974.045" cy="394.767" r="21.975"/>
		<polygon stroke="#231F20" stroke-width="0.5" stroke-miterlimit="10" points="959.534,434.192 969.874,436.486 978.743,416.251 
			960.38,412.176 		"/>
	</g>
	<g>
		<ellipse stroke="#231F20" stroke-width="0.5" stroke-miterlimit="10" cx="1135.793" cy="490.438" rx="14.453" ry="15.505"/>
		<polygon stroke="#231F20" stroke-width="0.5" stroke-miterlimit="10" points="1120.482,515.112 1126.746,518.383 
			1135.514,505.952 1124.39,500.143 		"/>
	</g>
	<g>
		<circle stroke="#231F20" stroke-width="0.5" stroke-miterlimit="10" cx="226.455" cy="394.767" r="21.975"/>
		<polygon stroke="#231F20" stroke-width="0.5" stroke-miterlimit="10" points="240.966,434.192 230.626,436.486 221.757,416.251 
			240.12,412.176 		"/>
	</g>
	<g>
		<ellipse stroke="#231F20" stroke-width="0.5" stroke-miterlimit="10" cx="64.707" cy="490.438" rx="14.453" ry="15.505"/>
		<polygon stroke="#231F20" stroke-width="0.5" stroke-miterlimit="10" points="80.018,515.112 73.754,518.383 64.986,505.952 
			76.11,500.143 		"/>
	</g>
</g>
</svg>
